<?xml version="1.0" ?><svg viewBox="0 0 24 24" xmlns="http://www.w3.org/2000/svg"><defs><style>.cls-1{fill:none;}.cls-2{fill:#00cd4c;}.cls-3{fill:#fff;}</style></defs><title/><g data-name="Layer 2" id="Layer_2"><g data-name="Layer 2" id="Layer_2-2"><g id="Whatups"><rect class="cls-1" height="24" width="24"/><path class="cls-2" d="M1,12C1,4,4,1,12,1S23,4,23,12,20,23,12,23,1,20,1,12"/><path class="cls-3" d="M5.94,18.16l.48-1.43c.16-.46.29-.93.47-1.38a.68.68,0,0,0,0-.62A5.82,5.82,0,0,1,7.65,8.1a5.7,5.7,0,0,1,4.64-1.93A5.61,5.61,0,0,1,15.85,7.6a5.81,5.81,0,0,1,1.85,3.09,5.75,5.75,0,0,1-.08,2.94,5.67,5.67,0,0,1-2.08,3,5.72,5.72,0,0,1-4.76,1.07,5.33,5.33,0,0,1-1.49-.54.27.27,0,0,0-.23,0L6.38,18Zm1.52-1.51.09,0,1.68-.53a.28.28,0,0,1,.18,0c.24.12.47.27.72.37a4.65,4.65,0,0,0,3.16.21,4.78,4.78,0,0,0,2.93-2.27,4.87,4.87,0,0,0-1.57-6.51,4.86,4.86,0,0,0-6.14.7A4.74,4.74,0,0,0,7.25,11a4.67,4.67,0,0,0,.65,3.62.6.6,0,0,1,0,.62C7.77,15.68,7.63,16.16,7.46,16.65Z"/><path class="cls-3" d="M15,13.69a1.13,1.13,0,0,1-.67,1,1.59,1.59,0,0,1-1.33.09,12.89,12.89,0,0,1-1.21-.51,4.62,4.62,0,0,1-1.34-1.07,7.6,7.6,0,0,1-1.09-1.55,2.29,2.29,0,0,1-.3-1.28,1.63,1.63,0,0,1,.66-1.17.59.59,0,0,1,.29-.1,2.36,2.36,0,0,1,.38,0,.24.24,0,0,1,.2.17c.1.23.18.46.27.7s.11.32.18.47A.43.43,0,0,1,11,11a2.72,2.72,0,0,1-.32.35.22.22,0,0,0-.05.29,4.55,4.55,0,0,0,1.06,1.29,4.6,4.6,0,0,0,1,.57.2.2,0,0,0,.27,0l.5-.57c.11-.12.16-.15.3-.08l1.23.64A.23.23,0,0,1,15,13.69Z"/></g></g></g></svg>