<?xml version="1.0" ?><svg viewBox="0 0 24 24" xmlns="http://www.w3.org/2000/svg" xmlns:xlink="http://www.w3.org/1999/xlink"><defs><style>.cls-1{fill:none;}.cls-2{fill:url(#radial-gradient);}.cls-3{fill:#fff;}</style><radialGradient cx="12" cy="12" fx="-0.862680476451203" fy="29.63082629626967" gradientUnits="userSpaceOnUse" id="radial-gradient" r="35.57"><stop offset="0.17" stop-color="#ffc900"/><stop offset="0.2" stop-color="#ffad15"/><stop offset="0.3" stop-color="#ff5658"/><stop offset="0.34" stop-color="#ff3372"/><stop offset="0.43" stop-color="#ec2799"/><stop offset="0.49" stop-color="#df20b3"/><stop offset="0.61" stop-color="#1820f1"/><stop offset="0.62" stop-color="#0020f9"/></radialGradient></defs><title/><g data-name="Layer 2" id="Layer_2"><g data-name="Layer 2" id="Layer_2-2"><g id="Instagram"><rect class="cls-1" height="24" width="24"/><path class="cls-2" d="M1,12C1,4,4,1,12,1S23,4,23,12,20,23,12,23,1,20,1,12"/><path class="cls-3" d="M12,15.34h-.18a3.38,3.38,0,0,1-3.16-3.16A3.33,3.33,0,0,1,9.57,9.7a3.38,3.38,0,0,1,2.43-1,3.34,3.34,0,0,1,2.77,1.47A3.27,3.27,0,0,1,15.34,12a3.38,3.38,0,0,1-1,2.43A3.34,3.34,0,0,1,12,15.34Zm0-5.4A2.07,2.07,0,0,0,10,12.11a2.05,2.05,0,0,0,1.94,1.94A2.07,2.07,0,0,0,14.06,12a2.13,2.13,0,0,0-.35-1.15A2.08,2.08,0,0,0,12,9.94Z"/><path class="cls-3" d="M16.42,8.38a.8.8,0,1,1-.8-.8.82.82,0,0,1,.31.07A.8.8,0,0,1,16.42,8.38Z"/><path class="cls-3" d="M14.63,18.64H9.37a4,4,0,0,1-4-4V9.37a4,4,0,0,1,4-4h5.26a4,4,0,0,1,4,4v5.26A4,4,0,0,1,14.63,18.64Zm-5.26-12A2.74,2.74,0,0,0,6.64,9.37v5.26a2.74,2.74,0,0,0,2.73,2.73h5.26a2.74,2.74,0,0,0,2.73-2.73V9.37a2.74,2.74,0,0,0-2.73-2.73Z"/></g></g></g></svg>